<?xml version="1.0" encoding="UTF-8" standalone="no"?>
<!-- Created with Inkscape (http://www.inkscape.org/) -->

<svg
   xmlns:dc="http://purl.org/dc/elements/1.1/"
   xmlns:cc="http://creativecommons.org/ns#"
   xmlns:rdf="http://www.w3.org/1999/02/22-rdf-syntax-ns#"
   xmlns:svg="http://www.w3.org/2000/svg"
   xmlns="http://www.w3.org/2000/svg"
   xmlns:sodipodi="http://sodipodi.sourceforge.net/DTD/sodipodi-0.dtd"
   xmlns:inkscape="http://www.inkscape.org/namespaces/inkscape"
   width="32"
   height="32"
   viewBox="0 0 8.4666659 8.4666659"
   version="1.1"
   id="svg8"
   inkscape:version="0.92.4 (5da689c313, 2019-01-14)"
   sodipodi:docname="gear.svg">
  <defs
     id="defs2" />
  <sodipodi:namedview
     id="base"
     pagecolor="#ffffff"
     bordercolor="#666666"
     borderopacity="1.0"
     inkscape:pageopacity="0.0"
     inkscape:pageshadow="2"
     inkscape:zoom="11.2"
     inkscape:cx="31.672279"
     inkscape:cy="6.5086209"
     inkscape:document-units="px"
     inkscape:current-layer="layer1"
     showgrid="false"
     units="px"
     inkscape:window-width="1920"
     inkscape:window-height="1017"
     inkscape:window-x="1912"
     inkscape:window-y="843"
     inkscape:window-maximized="1" />
  <metadata
     id="metadata5">
    <rdf:RDF>
      <cc:Work
         rdf:about="">
        <dc:format>image/svg+xml</dc:format>
        <dc:type
           rdf:resource="http://purl.org/dc/dcmitype/StillImage" />
        <dc:title></dc:title>
      </cc:Work>
    </rdf:RDF>
  </metadata>
  <g
     inkscape:label="Layer 1"
     inkscape:groupmode="layer"
     id="layer1"
     transform="translate(0,-288.53334)">
    <path
       style="stroke-width:1;fill:#502d16"
       d="M 18.222656 0.67773438 C 18.028911 0.65001122 15.537228 3.3155645 15.341797 3.3261719 C 15.146366 3.3367792 12.37906 0.95537605 12.189453 1.0039062 C 11.999847 1.0524365 10.717511 4.4700994 10.541016 4.5546875 C 10.36452 4.6392756 6.8987892 3.4978391 6.7421875 3.6152344 C 6.5855858 3.7326297 6.708815 7.3816527 6.578125 7.5273438 C 6.447435 7.6730348 2.8067872 7.9448933 2.7070312 8.1132812 C 2.6072753 8.2816692 4.1177226 11.604449 4.0527344 11.789062 C 3.9877461 11.973676 0.72889503 13.616802 0.70117188 13.810547 C 0.67344872 14.004292 3.3409552 16.497928 3.3515625 16.693359 C 3.3621698 16.88879 0.98076667 19.654144 1.0292969 19.84375 C 1.0778271 20.033356 4.49549 21.315692 4.5800781 21.492188 C 4.6646662 21.668683 3.5232297 25.134414 3.640625 25.291016 C 3.7580203 25.447617 7.4050902 25.324388 7.5507812 25.455078 C 7.6964723 25.585768 7.9683308 29.226416 8.1367188 29.326172 C 8.3051067 29.425928 11.627886 27.91548 11.8125 27.980469 C 11.997114 28.045457 13.642192 31.304308 13.835938 31.332031 C 14.029683 31.359754 16.521366 28.692248 16.716797 28.681641 C 16.912228 28.671033 19.679534 31.052436 19.869141 31.003906 C 20.058747 30.955376 21.33913 27.539666 21.515625 27.455078 C 21.69212 27.37049 25.159805 28.511927 25.316406 28.394531 C 25.473008 28.277136 25.349779 24.628113 25.480469 24.482422 C 25.611159 24.336731 29.249853 24.064872 29.349609 23.896484 C 29.449365 23.728096 27.940871 20.405317 28.005859 20.220703 C 28.070848 20.036089 31.329699 18.391011 31.357422 18.197266 C 31.385145 18.00352 28.717639 15.511837 28.707031 15.316406 C 28.696424 15.120975 31.077827 12.355622 31.029297 12.166016 C 30.980767 11.976409 27.563104 10.694073 27.478516 10.517578 C 27.393928 10.341083 28.535364 6.8733986 28.417969 6.7167969 C 28.300573 6.5601951 24.653504 6.6834244 24.507812 6.5527344 C 24.362121 6.4220444 24.090263 2.7833497 23.921875 2.6835938 C 23.753487 2.5838378 20.428755 4.0942851 20.244141 4.0292969 C 20.059527 3.9643086 18.416401 0.70545753 18.222656 0.67773438 z M 15.972656 5.9257812 A 9.880554 9.880554 0 0 1 25.853516 15.806641 A 9.880554 9.880554 0 0 1 15.972656 25.685547 A 9.880554 9.880554 0 0 1 6.0917969 15.806641 A 9.880554 9.880554 0 0 1 15.972656 5.9257812 z "
       id="path3727"
       transform="matrix(0.26458331,0,0,0.26458331,0,288.53334)" />
  </g>
</svg>
