<?xml version="1.0" encoding="UTF-8" standalone="no"?>
<!-- Created with Inkscape (http://www.inkscape.org/) -->

<svg
   xmlns:dc="http://purl.org/dc/elements/1.1/"
   xmlns:cc="http://creativecommons.org/ns#"
   xmlns:rdf="http://www.w3.org/1999/02/22-rdf-syntax-ns#"
   xmlns:svg="http://www.w3.org/2000/svg"
   xmlns="http://www.w3.org/2000/svg"
   xmlns:sodipodi="http://sodipodi.sourceforge.net/DTD/sodipodi-0.dtd"
   xmlns:inkscape="http://www.inkscape.org/namespaces/inkscape"
   width="270"
   height="410"
   viewBox="0 0 269.99999 409.99999"
   id="svg2"
   version="1.1"
   inkscape:version="0.91 r13725"
   sodipodi:docname="mech.svg">
  <defs
     id="defs4">
    <inkscape:perspective
       sodipodi:type="inkscape:persp3d"
       inkscape:vp_x="0 : 205 : 1"
       inkscape:vp_y="0 : 1000 : 0"
       inkscape:vp_z="269.99999 : 205 : 1"
       inkscape:persp3d-origin="135 : 136.66666 : 1"
       id="perspective4170" />
  </defs>
  <sodipodi:namedview
     id="base"
     pagecolor="#ffffff"
     bordercolor="#666666"
     borderopacity="1.0"
     inkscape:pageopacity="0.0"
     inkscape:pageshadow="2"
     inkscape:zoom="2.8284271"
     inkscape:cx="87.182018"
     inkscape:cy="298.28126"
     inkscape:document-units="px"
     inkscape:current-layer="layer1"
     showgrid="false"
     units="px"
     inkscape:window-width="1920"
     inkscape:window-height="1027"
     inkscape:window-x="0"
     inkscape:window-y="0"
     inkscape:window-maximized="1" />
  <metadata
     id="metadata7">
    <rdf:RDF>
      <cc:Work
         rdf:about="">
        <dc:format>image/svg+xml</dc:format>
        <dc:type
           rdf:resource="http://purl.org/dc/dcmitype/StillImage" />
        <dc:title />
      </cc:Work>
    </rdf:RDF>
  </metadata>
  <g
     inkscape:label="Layer 1"
     inkscape:groupmode="layer"
     id="layer1"
     transform="translate(0,-642.36228)">
    <path
       style="fill:#0000ff;fill-opacity:0.84494784;fill-rule:evenodd;stroke:none;stroke-width:1px;stroke-linecap:butt;stroke-linejoin:miter;stroke-opacity:1"
       d="m 1.6993698,663.59094 0,52.07054 29.1034332,0 0,-0.35092 7.714509,0 0,-24.5453 -7.714509,0 0,-27.17432 -29.1034332,0 z M 17.56752,692.86887 a 9.2044856,9.2044856 0 0 1 9.204486,9.20449 9.2044856,9.2044856 0 0 1 -9.204486,9.20448 9.2044856,9.2044856 0 0 1 -9.2044861,-9.20448 9.2044856,9.2044856 0 0 1 9.2044861,-9.20449 z"
       id="rect3394"
       inkscape:connector-curvature="0" />
    <path
       style="fill:#0000ff;fill-opacity:0.84494784;fill-rule:evenodd;stroke:none;stroke-width:1px;stroke-linecap:butt;stroke-linejoin:miter;stroke-opacity:1"
       d="m 44.478038,1001.9637 -0.175323,14.0268 -15.778022,0 0,35.0652 85.206687,0 0,-35.0652 -15.954437,0 0.175322,-14.0268 -10.212732,-8.06487 c -8.912372,0 -24.662361,0.35064 -33.574732,0.35064 z"
       id="rect3400"
       inkscape:connector-curvature="0"
       sodipodi:nodetypes="ccccccccccc" />
    <rect
       style="fill:#0000ff;fill-opacity:0.84494784;fill-rule:evenodd;stroke:none;stroke-width:1px;stroke-linecap:butt;stroke-linejoin:miter;stroke-opacity:1"
       id="rect3404"
       width="28.577736"
       height="33.486797"
       x="57.102158"
       y="958.65967"
       ry="4.3830886" />
    <path
       style="fill:#0000ff;fill-opacity:0.84494784;fill-rule:evenodd;stroke:none;stroke-width:1px;stroke-linecap:butt;stroke-linejoin:miter;stroke-opacity:1"
       d="m 57.101333,773.16732 9.642794,19.11027 -17.532353,31.55824 11.220706,133.59653 20.162207,0 11.133044,-134.8238 -14.814838,-28.57774 -0.350648,-20.68818 c -10.227206,0 -9.233706,-0.17532 -19.460912,-0.17532 z"
       id="rect3406"
       inkscape:connector-curvature="0"
       sodipodi:nodetypes="ccccccccc" />
    <path
       style="fill:#0000ff;fill-opacity:0.84494784;fill-rule:evenodd;stroke:none;stroke-width:1px;stroke-linecap:butt;stroke-linejoin:miter;stroke-opacity:1"
       d="m 55.348098,657.62911 0,6.13633 -7.187991,5.61035 0.175323,14.20038 -7.187168,0 0,66.2723 7.187168,0 -0.175323,16.30537 9.072993,4.90906 c 5.931779,0 11.863558,0 17.795338,0 l 8.722347,-4.90906 0,-96.77805 -6.837345,-5.61035 0,-6.13633 z"
       id="rect3408"
       inkscape:connector-curvature="0"
       sodipodi:nodetypes="ccccccccccccccc" />
    <path
       style="fill:#0000ff;fill-opacity:0.84494784;fill-rule:evenodd;stroke:none;stroke-width:1px;stroke-linecap:butt;stroke-linejoin:miter;stroke-opacity:1"
       d="m 135.29289,683.9271 0,0.0115 -48.35423,0 -0.381603,106.23511 48.747333,2.98378 0,-0.004 48.72816,-2.97995 -0.35092,-106.24661 -48.38874,0 z m -0.0135,17.73205 0,0.004 24.12151,0.14765 13.93713,9.46912 -13.85084,33.13423 -9.90441,-4.20722 -14.27846,0.15532 0,0.008 -14.26695,-0.1515 -9.90441,4.20722 -13.850831,-33.13423 13.937121,-9.46911 24.06014,-0.163 z"
       id="path4168"
       inkscape:connector-curvature="0" />
    <path
       inkscape:connector-curvature="0"
       style="fill:#0000ff;fill-opacity:0.84494784;fill-rule:evenodd;stroke:none;stroke-width:1px;stroke-linecap:butt;stroke-linejoin:miter;stroke-opacity:1"
       d="m 268.89011,663.59068 0,52.07053 -29.10342,0 0,-0.35092 -7.71452,0 0,-24.54529 7.71452,0 0,-27.17432 29.10342,0 z m -15.86815,29.27793 a 9.2044856,9.2044856 0 0 0 -9.20448,9.20448 9.2044856,9.2044856 0 0 0 9.20448,9.20449 9.2044856,9.2044856 0 0 0 9.20449,-9.20449 9.2044856,9.2044856 0 0 0 -9.20449,-9.20448 z"
       id="rect3394-6" />
    <path
       style="fill:#0000ff;fill-opacity:0.84494784;fill-rule:evenodd;stroke:none;stroke-width:1px;stroke-linecap:butt;stroke-linejoin:miter;stroke-opacity:1"
       d="m 226.11145,1001.9635 0.17533,14.0267 15.77802,0 0,35.0652 -85.2067,0 0,-35.0652 15.95444,0 -0.17532,-14.0267 10.21273,-8.06494 c 8.91238,0 24.66237,0.35065 33.57473,0.35065 z"
       id="rect3400-7"
       inkscape:connector-curvature="0"
       sodipodi:nodetypes="ccccccccccc" />
    <rect
       style="fill:#0000ff;fill-opacity:0.84494784;fill-rule:evenodd;stroke:none;stroke-width:1px;stroke-linecap:butt;stroke-linejoin:miter;stroke-opacity:1"
       id="rect3404-5"
       width="28.577736"
       height="33.486797"
       x="-213.48732"
       y="958.65942"
       ry="4.3830886"
       transform="scale(-1,1)" />
    <path
       style="fill:#0000ff;fill-opacity:0.84494784;fill-rule:evenodd;stroke:none;stroke-width:1px;stroke-linecap:butt;stroke-linejoin:miter;stroke-opacity:1"
       d="m 213.48815,773.16706 -9.64279,19.11027 17.53236,31.55824 -11.22071,133.59652 -20.16221,0 -11.13304,-134.8238 14.81483,-28.57773 0.35065,-20.68818 c 10.22721,0 9.23371,-0.17532 19.46091,-0.17532 z"
       id="rect3406-3"
       inkscape:connector-curvature="0"
       sodipodi:nodetypes="ccccccccc" />
    <path
       style="fill:#0000ff;fill-opacity:0.84494784;fill-rule:evenodd;stroke:none;stroke-width:1px;stroke-linecap:butt;stroke-linejoin:miter;stroke-opacity:1"
       d="m 215.24139,657.62885 0,6.13632 7.18799,5.61036 -0.17533,14.20038 7.18718,0 0,66.27229 -7.18718,0 0.17533,16.30537 -9.073,4.90906 c -5.93177,0 -11.86355,0 -17.79534,0 l -8.72233,-4.90906 0,-96.77804 6.83733,-5.61036 0,-6.13632 z"
       id="rect3408-5"
       inkscape:connector-curvature="0"
       sodipodi:nodetypes="ccccccccccccccc" />
  </g>
</svg>
